<svg width="170" height="45" viewBox="0 0 170 45" fill="none" xmlns="http://www.w3.org/2000/svg">
<path d="M31.8034 26.36C30.4114 26.36 29.1874 26.08 28.1314 25.52C27.0754 24.952 26.2514 24.156 25.6594 23.132C25.0674 22.108 24.7714 20.904 24.7714 19.52V8.744L28.0834 8.72V19.496C28.0834 20.064 28.1794 20.58 28.3714 21.044C28.5634 21.508 28.8274 21.908 29.1634 22.244C29.5074 22.58 29.9034 22.84 30.3514 23.024C30.8074 23.2 31.2914 23.288 31.8034 23.288C32.3314 23.288 32.8194 23.196 33.2674 23.012C33.7234 22.828 34.1194 22.568 34.4554 22.232C34.7914 21.896 35.0514 21.496 35.2354 21.032C35.4274 20.568 35.5234 20.056 35.5234 19.496V8.72H38.8354V19.52C38.8354 20.904 38.5394 22.108 37.9474 23.132C37.3554 24.156 36.5314 24.952 35.4754 25.52C34.4194 26.08 33.1954 26.36 31.8034 26.36ZM40.7455 26L46.5535 17.264L40.9135 8.72H44.9215L48.5935 14.48L52.2175 8.72H56.2495L50.6095 17.264L56.3935 26H52.3855L48.5935 20.048L44.7775 26H40.7455ZM58.3105 26V8.72H63.9025C64.0385 8.72 64.3185 8.724 64.7425 8.732C65.1665 8.74 65.5745 8.768 65.9665 8.816C67.3585 8.984 68.5385 9.468 69.5065 10.268C70.4745 11.068 71.2105 12.084 71.7145 13.316C72.2185 14.548 72.4705 15.896 72.4705 17.36C72.4705 18.824 72.2185 20.172 71.7145 21.404C71.2105 22.636 70.4745 23.652 69.5065 24.452C68.5385 25.252 67.3585 25.736 65.9665 25.904C65.5745 25.952 65.1665 25.98 64.7425 25.988C64.3185 25.996 64.0385 26 63.9025 26H58.3105ZM61.6225 22.928H63.9025C64.1185 22.928 64.4105 22.924 64.7785 22.916C65.1465 22.9 65.4785 22.864 65.7745 22.808C66.5265 22.656 67.1385 22.304 67.6105 21.752C68.0905 21.2 68.4425 20.536 68.6665 19.76C68.8985 18.984 69.0145 18.184 69.0145 17.36C69.0145 16.496 68.8945 15.676 68.6545 14.9C68.4225 14.124 68.0665 13.468 67.5865 12.932C67.1065 12.396 66.5025 12.056 65.7745 11.912C65.4785 11.848 65.1465 11.812 64.7785 11.804C64.4105 11.796 64.1185 11.792 63.9025 11.792H61.6225V22.928ZM75.3495 26V8.72H86.6295V11.768H78.6135V15.464H85.1895V18.512H78.6135V22.952H86.6295V26H75.3495ZM96.0338 26.36C94.7538 26.36 93.5978 26.136 92.5658 25.688C91.5418 25.232 90.6978 24.584 90.0338 23.744C89.3778 22.896 88.9618 21.888 88.7858 20.72L92.1938 20.216C92.4338 21.208 92.9298 21.972 93.6818 22.508C94.4338 23.044 95.2898 23.312 96.2498 23.312C96.7858 23.312 97.3058 23.228 97.8098 23.06C98.3138 22.892 98.7258 22.644 99.0458 22.316C99.3738 21.988 99.5378 21.584 99.5378 21.104C99.5378 20.928 99.5098 20.76 99.4538 20.6C99.4058 20.432 99.3218 20.276 99.2018 20.132C99.0818 19.988 98.9098 19.852 98.6858 19.724C98.4698 19.596 98.1938 19.48 97.8578 19.376L93.3698 18.056C93.0338 17.96 92.6418 17.824 92.1938 17.648C91.7538 17.472 91.3258 17.22 90.9098 16.892C90.4938 16.564 90.1458 16.132 89.8658 15.596C89.5938 15.052 89.4578 14.368 89.4578 13.544C89.4578 12.384 89.7498 11.42 90.3338 10.652C90.9178 9.884 91.6978 9.312 92.6738 8.936C93.6498 8.56 94.7298 8.376 95.9138 8.384C97.1058 8.4 98.1698 8.604 99.1058 8.996C100.042 9.388 100.826 9.96 101.458 10.712C102.09 11.456 102.546 12.368 102.826 13.448L99.2978 14.048C99.1698 13.488 98.9338 13.016 98.5898 12.632C98.2458 12.248 97.8338 11.956 97.3538 11.756C96.8818 11.556 96.3858 11.448 95.8658 11.432C95.3538 11.416 94.8698 11.488 94.4138 11.648C93.9658 11.8 93.5978 12.024 93.3098 12.32C93.0298 12.616 92.8898 12.968 92.8898 13.376C92.8898 13.752 93.0058 14.06 93.2378 14.3C93.4698 14.532 93.7618 14.72 94.1138 14.864C94.4658 15.008 94.8258 15.128 95.1938 15.224L98.1938 16.04C98.6418 16.16 99.1378 16.32 99.6818 16.52C100.226 16.712 100.746 16.984 101.242 17.336C101.746 17.68 102.158 18.136 102.478 18.704C102.806 19.272 102.97 19.992 102.97 20.864C102.97 21.792 102.774 22.604 102.382 23.3C101.998 23.988 101.478 24.56 100.822 25.016C100.166 25.464 99.4218 25.8 98.5898 26.024C97.7658 26.248 96.9138 26.36 96.0338 26.36ZM105.847 26V8.72H109.111V26H105.847ZM119.909 26.36C118.821 26.36 117.785 26.168 116.801 25.784C115.817 25.392 114.945 24.816 114.185 24.056C113.433 23.296 112.837 22.356 112.397 21.236C111.965 20.116 111.749 18.824 111.749 17.36C111.749 15.448 112.113 13.824 112.841 12.488C113.577 11.144 114.561 10.12 115.793 9.416C117.033 8.712 118.405 8.36 119.909 8.36C122.133 8.36 123.881 8.876 125.153 9.908C126.425 10.94 127.277 12.4 127.709 14.288L124.373 14.768C124.061 13.76 123.549 12.956 122.837 12.356C122.133 11.748 121.229 11.44 120.125 11.432C119.029 11.416 118.117 11.652 117.389 12.14C116.661 12.628 116.113 13.32 115.745 14.216C115.385 15.112 115.205 16.16 115.205 17.36C115.205 18.56 115.385 19.6 115.745 20.48C116.113 21.36 116.661 22.044 117.389 22.532C118.117 23.02 119.029 23.272 120.125 23.288C120.869 23.304 121.541 23.176 122.141 22.904C122.749 22.632 123.261 22.204 123.677 21.62C124.093 21.036 124.389 20.288 124.565 19.376H121.829V16.856H128.045C128.061 16.96 128.073 17.144 128.081 17.408C128.089 17.672 128.093 17.824 128.093 17.864C128.093 19.52 127.757 20.988 127.085 22.268C126.413 23.548 125.465 24.552 124.241 25.28C123.017 26 121.573 26.36 119.909 26.36ZM130.498 26V8.72H133.81L141.322 20.24V8.72H144.634V26H141.322L133.81 14.48V26H130.498Z" fill="white"/>
<path d="M26.234 41V30.92H27.942L31.274 37.612L34.606 30.92H36.314V41H34.536V34.98L31.61 41H30.938L28.012 34.98V41H26.234ZM50.2489 41L53.3289 30.92H56.1709L59.2509 41H57.2909L54.5469 32.11H54.9109L52.2089 41H50.2489ZM52.0969 38.9V37.122H57.4169V38.9H52.0969ZM76.7101 41.21C75.9635 41.21 75.2891 41.0793 74.6871 40.818C74.0898 40.552 73.5975 40.174 73.2101 39.684C72.8275 39.1893 72.5848 38.6013 72.4821 37.92L74.4701 37.626C74.6101 38.2047 74.8995 38.6503 75.3381 38.963C75.7768 39.2757 76.2761 39.432 76.8361 39.432C77.1488 39.432 77.4521 39.383 77.7461 39.285C78.0401 39.187 78.2805 39.0423 78.4671 38.851C78.6585 38.6597 78.7541 38.424 78.7541 38.144C78.7541 38.0413 78.7378 37.9433 78.7051 37.85C78.6771 37.752 78.6281 37.661 78.5581 37.577C78.4881 37.493 78.3878 37.4137 78.2571 37.339C78.1311 37.2643 77.9701 37.1967 77.7741 37.136L75.1561 36.366C74.9601 36.31 74.7315 36.2307 74.4701 36.128C74.2135 36.0253 73.9638 35.8783 73.7211 35.687C73.4785 35.4957 73.2755 35.2437 73.1121 34.931C72.9535 34.6137 72.8741 34.2147 72.8741 33.734C72.8741 33.0573 73.0445 32.495 73.3851 32.047C73.7258 31.599 74.1808 31.2653 74.7501 31.046C75.3195 30.8267 75.9495 30.7193 76.6401 30.724C77.3355 30.7333 77.9561 30.8523 78.5021 31.081C79.0481 31.3097 79.5055 31.6433 79.8741 32.082C80.2428 32.516 80.5088 33.048 80.6721 33.678L78.6141 34.028C78.5395 33.7013 78.4018 33.426 78.2011 33.202C78.0005 32.978 77.7601 32.8077 77.4801 32.691C77.2048 32.5743 76.9155 32.5113 76.6121 32.502C76.3135 32.4927 76.0311 32.5347 75.7651 32.628C75.5038 32.7167 75.2891 32.8473 75.1211 33.02C74.9578 33.1927 74.8761 33.398 74.8761 33.636C74.8761 33.8553 74.9438 34.035 75.0791 34.175C75.2145 34.3103 75.3848 34.42 75.5901 34.504C75.7955 34.588 76.0055 34.658 76.2201 34.714L77.9701 35.19C78.2315 35.26 78.5208 35.3533 78.8381 35.47C79.1555 35.582 79.4588 35.7407 79.7481 35.946C80.0421 36.1467 80.2825 36.4127 80.4691 36.744C80.6605 37.0753 80.7561 37.4953 80.7561 38.004C80.7561 38.5453 80.6418 39.019 80.4131 39.425C80.1891 39.8263 79.8858 40.16 79.5031 40.426C79.1205 40.6873 78.6865 40.8833 78.2011 41.014C77.7205 41.1447 77.2235 41.21 76.7101 41.21ZM97.3027 41V32.698H94.1247V30.92H102.385V32.698H99.2067V41H97.3027ZM116.18 41V30.92H122.76V32.698H118.084V34.854H121.92V36.632H118.084V39.222H122.76V41H116.18ZM137.107 41V30.92H141.363C141.461 30.92 141.592 30.9247 141.755 30.934C141.923 30.9387 142.073 30.9527 142.203 30.976C142.805 31.0693 143.298 31.2677 143.68 31.571C144.068 31.8743 144.352 32.257 144.534 32.719C144.716 33.1763 144.807 33.6873 144.807 34.252C144.807 35.0967 144.597 35.82 144.177 36.422C143.757 37.0193 143.099 37.388 142.203 37.528L141.363 37.584H139.011V41H137.107ZM142.791 41L140.803 36.898L142.763 36.52L144.947 41H142.791ZM139.011 35.806H141.279C141.377 35.806 141.485 35.8013 141.601 35.792C141.718 35.7827 141.825 35.764 141.923 35.736C142.18 35.666 142.378 35.5493 142.518 35.386C142.658 35.218 142.754 35.0337 142.805 34.833C142.861 34.6277 142.889 34.434 142.889 34.252C142.889 34.07 142.861 33.8787 142.805 33.678C142.754 33.4727 142.658 33.2883 142.518 33.125C142.378 32.957 142.18 32.838 141.923 32.768C141.825 32.74 141.718 32.7213 141.601 32.712C141.485 32.7027 141.377 32.698 141.279 32.698H139.011V35.806Z" fill="white"/>
</svg>
